<?xml version="1.0" encoding="utf-8"?>
<!-- Generator: Adobe Illustrator 18.1.0, SVG Export Plug-In . SVG Version: 6.00 Build 0)  -->
<svg version="1.1" id="Layer_1" xmlns="http://www.w3.org/2000/svg" xmlns:xlink="http://www.w3.org/1999/xlink" x="0px" y="0px"
	 width="99.2px" height="68px" viewBox="0 0 99.2 68" enable-background="new 0 0 99.2 68" xml:space="preserve">
<path fill="#FFFFFF" d="M97.3,49.3c-3.2-2.8-7.4-4.7-9.9-5.6c0-0.3,0-0.6,0-0.9c0-0.2,0.1-0.3,0-0.5c0,0,0-0.3-0.1-0.6
	c-0.2-5.6-0.4-15.8-1.7-20.9c-0.3-1.1-1.4-1.8-2.5-1.5c-1.1,0.3-1.8,1.4-1.5,2.5c0.3,1.3,0.6,2.9,0.8,4.8C77.1,17.2,67,7.3,46.9,7.3
	c-0.9,0-1.8,0-2.7,0.1C21.4,8.3,15.8,30.7,14,38.1c-0.3,1.1,0.4,2.2,1.5,2.5c1.1,0.3,2.3-0.4,2.5-1.5c2.8-11.5,8.6-26.8,26.2-27.6
	c33.4-1.4,38.2,25.3,38.8,30.2c0,0,0,0,0,0c0,0.6,0,1.1,0,1.5c-1,0.6-4.8,2.5-10.8,4.5c-0.8-1-2-1.6-3.3-1.6c-0.4,0-0.7,0-1.1,0.1
	l-9.7,2.5c-1.1,0.3-2,1-2.6,1.9c-0.2,0.3-0.3,0.6-0.4,0.9c-6,0.9-11.9,1.4-17.8,1.3c-0.4-1.8-1.9-3.2-3.9-3.4l-10.7-1
	c-1.7-0.2-3.3,0.7-4.1,2c-3.5-0.8-6.9-1.8-10.3-3c0.5-7.5,4.3-42,34.6-43.3C53.7,3.8,64.4,5.1,75,8l0.4,0.1c2.2,0.6,3.8,2.9,4.8,6.8
	c0.3,1.1,1.4,1.8,2.5,1.5c1.1-0.3,1.8-1.4,1.5-2.5c-1.4-5.5-4-8.8-7.7-9.9L76.1,4c-11-3-22.2-4.4-33.2-3.9
	C7.7,1.6,4.5,42.2,4.2,48.2l-2.9,3.6c-1.3,1.7-1.7,3.6-1,5.4c1.6,4.1,8,6.4,13.4,7.3c4.6,0.7,8.4,0.9,12.1,1.1
	c2.7,0.1,5.3,0.3,8.1,0.6l1.5,0.2c4.6,0.6,11.7,1.5,22.6,1.5c2.8,0,5.8-0.1,9.1-0.2c25.1-1.1,30.5-8.6,31.6-11.8
	C99.7,53.5,99.1,51,97.3,49.3z M69,49.9l0.5,2.5l-9.7,2.5c0,0-0.6-2.3-0.6-2.3L69,49.9z M22.3,52.6c0-0.1,0.1-0.2,0.2-0.2h0l10.7,1
	c0.1,0,0.2,0.1,0.2,0.2l-0.1,2c0,0.1-0.1,0.2-0.2,0.2l-10.7-1c-0.1,0-0.1,0-0.1-0.1c0,0-0.1-0.1,0-0.1L22.3,52.6z M94.9,54.6
	c-1.3,3.7-9.4,8.3-27.9,9c-15.8,0.7-24.9-0.5-30.9-1.3l-1.5-0.2c-2.9-0.4-5.6-0.5-8.4-0.6c-3.6-0.2-7.2-0.4-11.6-1.1
	c-5.8-0.9-9.6-3.1-10.2-4.7c-0.1-0.2-0.2-0.6,0.4-1.3l2.4-3c3.6,1.3,7.3,2.4,11,3.2c0.1,0.9,0.4,1.7,1,2.4c0.8,0.9,1.8,1.4,3,1.6
	l10.7,1c0.1,0,0.3,0,0.4,0c1.7,0,3.2-1,4-2.5c0.8,0,1.5,0,2.3,0c5.4,0,10.9-0.5,16.4-1.3c0.7,1.5,2.2,2.5,3.9,2.5
	c0.4,0,0.7,0,1.1-0.1l9.7-2.5c1.8-0.5,3-2.1,3.1-3.9c5.8-1.9,9.7-3.8,11.3-4.6c1.9,0.6,6.5,2.4,9.7,5.2C95,52.9,95.2,53.7,94.9,54.6
	z"/>
</svg>
