<?xml version="1.0" encoding="utf-8"?>
<!-- Generator: Adobe Illustrator 18.1.0, SVG Export Plug-In . SVG Version: 6.00 Build 0)  -->
<svg version="1.1" id="Layer_1" xmlns="http://www.w3.org/2000/svg" xmlns:xlink="http://www.w3.org/1999/xlink" x="0px" y="0px"
	 width="70.9px" height="70.9px" viewBox="0 0 70.9 70.9" enable-background="new 0 0 70.9 70.9" xml:space="preserve">
<path fill="#FFFFFF" d="M68.2,55.4L51.9,39.3c1.9-3.7,2.9-7.8,2.9-12.2c0-6.5-2.3-12.4-6.1-17.1c-0.7-0.8-1.9-1-2.8-0.3
	c-0.9,0.7-1,1.9-0.3,2.8c3.3,4,5.2,9.1,5.2,14.6c0,12.8-10.5,23.2-23.4,23.2C14.5,50.3,4,39.9,4,27.1C4,14.3,14.5,4,27.4,3.9
	c4.7,0,9.1,1.4,12.8,3.8c0.9,0.6,2.2,0.3,2.8-0.6c0.6-0.9,0.3-2.1-0.6-2.7C38.1,1.6,32.9,0,27.4,0C12.3,0,0,12.1,0,27.1
	c0,15,12.3,27.1,27.4,27.1c4,0,7.9-0.9,11.3-2.4l16.6,16.4c3.6,3.5,9.4,3.5,12.9,0C71.8,64.7,71.8,59,68.2,55.4z M28.5,44.3
	c1.1,0,2-0.9,2-2c0-1.1-0.9-2-2-2c-6.1,0-11.4-3.9-13.3-9.3c-0.4-1-1.5-1.6-2.6-1.2c-1,0.4-1.6,1.5-1.2,2.5h0
	C13.9,39.3,20.6,44.2,28.5,44.3z"/>
</svg>
