<?xml version="1.0" encoding="utf-8"?>
<!-- Generator: Adobe Illustrator 18.1.0, SVG Export Plug-In . SVG Version: 6.00 Build 0)  -->
<svg version="1.1" id="Layer_1" xmlns="http://www.w3.org/2000/svg" xmlns:xlink="http://www.w3.org/1999/xlink" x="0px" y="0px"
	 width="212.6px" height="127.6px" viewBox="61 -18.6 212.6 127.6" enable-background="new 61 -18.6 212.6 127.6"
	 xml:space="preserve">
<path fill="#FFFFFF" d="M271.1,12.9c1.4,0,2.5-1.3,2.5-2.8V6c0-7.5-6.5-9.9-8.8-10.7c-2.5-1.3-30.5-13.9-96.4-13.9
	c-66.2,0-96.2,12.7-98.5,13.8C64-2.8,61,0.8,61,5.9v73.4c0,6.4,4,10.9,9.7,10.9c1.8,0,3.9-0.5,7.3-1.4c1.6-0.4,3.6-0.9,6-1.5v15.5
	c0,3,1.9,6.1,5.4,6.1H127c2.6,0,5.4-2.1,5.4-6.1V83.3c0-1.4-0.1-2.8-0.3-4c2.7-0.3,6.9-0.7,11.4-0.8c-0.3,1.5-0.5,3.1-0.5,4.9v19.5
	c0,3,1.9,6.1,5.4,6.1h37.5c2.6,0,5.4-2.1,5.4-6.1V83.4c0-1.7-0.2-3.4-0.5-4.9c4.6,0.1,8.8,0.5,11.5,0.8c-0.3,1.4-0.4,3-0.4,4.6v19.5
	c0,3,1.9,6.1,5.4,6.1h37.5c2.6,0,5.4-2.1,5.4-6.1v-16c1.8,0.4,3.4,0.8,4.7,1.2c4.3,1.1,6.7,1.7,8.9,1.7c5.8,0,9.7-4.4,9.7-10.9v-58
	c0-1.6-1.1-2.8-2.5-2.8c-1.4,0-2.5,1.3-2.5,2.8v58c0,1.9-0.6,5.2-4.7,5.2c-1.6,0-3.8-0.5-7.8-1.5c-1.6-0.4-3.6-0.9-6-1.5
	c-0.8-8.3-5.6-13.5-9.9-16.5c3.5-4,5.6-9.5,5.6-15.5c0-12.3-8.9-22.2-19.8-22.2c-10.9,0-19.8,10-19.8,22.2c0,6,2.1,11.5,5.6,15.5
	c-2.7,1.9-5.7,4.8-7.7,8.7c-2.9-0.3-9-0.9-15.4-1c-2-3.7-4.8-6.4-7.4-8.3c3.5-4,5.6-9.5,5.6-15.5c0-12.3-8.9-22.2-19.8-22.2
	s-19.8,10-19.8,22.2c0,6,2.1,11.5,5.6,15.5c-2.6,1.9-5.4,4.5-7.4,8.3c-6.3,0.1-12.2,0.7-15.1,1c-2-4.3-5.1-7.3-7.9-9.3
	c3.5-4,5.6-9.5,5.6-15.5c0-12.3-8.9-22.2-19.8-22.2S88.4,36.8,88.4,49c0,6,2.1,11.5,5.6,15.5c-4.3,3.1-9.3,8.4-9.9,17
	c-3,0.7-5.3,1.3-7.2,1.8c-3.1,0.8-4.9,1.3-6.2,1.3c-3.4,0-4.7-2.7-4.7-5.2V5.9c0-1.7,0.6-3.7,5.4-5.3c0.1,0,0.1-0.1,0.2-0.1
	C72,0.3,102-12.9,168.4-12.9c66.3,0,94.2,13.2,94.4,13.4c0.1,0,0.2,0.1,0.3,0.1c4.8,1.6,5.4,3.6,5.4,5.3V10
	C268.5,11.6,269.7,12.9,271.1,12.9z M211.3,49.5c0-9.1,6.6-16.5,14.8-16.5c8.1,0,14.7,7.4,14.7,16.5S234.2,66,226.1,66
	C217.9,66.1,211.3,58.7,211.3,49.5z M207,83.8c0-8.1,5.4-12.8,9.2-15.1c2.9,1.9,6.3,3,9.9,3c3.6,0,7-1.1,9.9-3
	c3.9,2.3,9.2,6.9,9.2,15.1v19.5c0,0.2,0,0.3,0,0.3c-0.1,0.1-0.3,0.1-0.4,0.1H240v-20c0-1.6-1.1-2.8-2.5-2.8s-2.5,1.3-2.5,2.8v20
	h-17.9v-20c0-1.6-1.1-2.8-2.5-2.8s-2.5,1.3-2.5,2.8v20h-4.7c-0.2,0-0.3,0-0.3,0c-0.1-0.1-0.1-0.3-0.1-0.4L207,83.8L207,83.8z
	 M152.4,49c0-9.1,6.6-16.5,14.8-16.5c8.1,0,14.7,7.4,14.7,16.5s-6.6,16.5-14.7,16.5C159,65.5,152.4,58.1,152.4,49z M148,83.3
	c0-8.1,5.4-12.8,9.2-15.1c2.9,1.9,6.3,3,9.9,3c3.6,0,7-1.1,9.9-3c3.9,2.3,9.2,6.9,9.2,15.1v19.5c0,0.2,0,0.3,0,0.3
	c-0.1,0.1-0.3,0.1-0.4,0.1H181v-20c0-1.6-1.1-2.8-2.5-2.8c-1.4,0-2.5,1.3-2.5,2.8v20h-17.9v-20c0-1.6-1.1-2.8-2.5-2.8
	c-1.4,0-2.5,1.3-2.5,2.8v20h-4.7c-0.2,0-0.3,0-0.3,0c-0.1-0.1-0.1-0.3-0.1-0.4V83.3z M93.5,49c0-9.1,6.6-16.5,14.8-16.5
	S123,39.8,123,49c0,9.1-6.6,16.5-14.7,16.5S93.5,58.1,93.5,49z M89.1,83.3c0-8.1,5.4-12.8,9.2-15.1c2.9,1.9,6.3,3,9.9,3s7-1.1,9.9-3
	c3.9,2.3,9.2,6.9,9.2,15.1v19.5c0,0.2,0,0.3,0,0.3c-0.1,0.1-0.3,0.1-0.4,0.1h-4.7v-20c0-1.6-1.1-2.8-2.5-2.8c-1.4,0-2.5,1.3-2.5,2.8
	v20H99.3v-20c0-1.6-1.1-2.8-2.5-2.8c-1.4,0-2.5,1.3-2.5,2.8v20h-4.7c-0.2,0-0.3,0-0.3,0c-0.1-0.1-0.1-0.3-0.1-0.4L89.1,83.3
	L89.1,83.3z"/>
</svg>
